<svg xmlns="http://www.w3.org/2000/svg" xmlns:xlink="http://www.w3.org/1999/xlink" version="1.1" width="1000" height="1000" viewBox="0 0 1000 1000" xml:space="preserve">
<desc>Created with Fabric.js 3.5.0</desc>
<defs>
</defs>
<rect x="0" y="0" width="100%" height="100%" fill="#ffffff"/>
<g transform="matrix(15.363 0 0 15.363 500.0007 500.0006)" id="707906">
<path style="stroke: none; stroke-width: 1; stroke-dasharray: none; stroke-linecap: butt; stroke-dashoffset: 0; stroke-linejoin: miter; stroke-miterlimit: 4; is-custom-font: none; font-file-url: none; fill: rgb(47,37,69); fill-rule: evenodd; opacity: 1;" vector-effect="non-scaling-stroke" transform=" translate(-13.5, -11.5)" d="M 4.19244 0.349969 C 3.92386 0.573026 3.75742 0.839485 3.75742 1.04661 C 3.75742 1.60247 4.14624 1.60329 4.70819 1.04867 C 5.11761 0.644585 5.18733 0.502702 5.0682 0.31618 C 4.83691 -0.0457377 4.66059 -0.0388701 4.19244 0.349969 Z M 22.0157 0.164821 C 21.782 0.395432 21.8008 0.472211 22.209 0.950876 C 22.5948 1.40331 23.1553 1.51552 23.2907 1.16734 C 23.3789 0.9403 22.6206 0 22.3491 0 C 22.2576 0 22.1075 0.0741693 22.0157 0.164821 Z M 20.1601 2.44951 C 18.5842 4.00912 18.5448 4.06282 18.6831 4.46389 C 18.7612 4.69051 18.8468 4.90066 18.8732 4.93074 C 18.8997 4.96096 19.7064 4.19083 20.6659 3.21949 L 22.4104 1.45344 L 22.0947 1.15031 L 21.7791 0.847314 L 20.1601 2.44951 Z M 4.79586 1.24192 C 4.54175 1.51896 4.55956 1.54299 6.26083 3.22622 C 7.20798 4.16323 8.02724 4.903 8.08137 4.86989 C 8.13551 4.83693 8.22193 4.64409 8.27342 4.4415 C 8.35775 4.11007 8.21024 3.91792 6.79522 2.51736 C 5.9306 1.66166 5.18496 0.961452 5.13806 0.961452 C 5.0913 0.961452 4.93725 1.08768 4.79586 1.24192 Z M 12.3925 1.11144 C 9.70959 1.63049 7.71273 4.47268 8.19952 7.07931 C 8.53574 8.8797 9.60285 10.2653 11.2443 11.0328 C 12.0883 11.4273 12.3023 11.4688 13.4989 11.4688 C 14.6439 11.4688 14.9281 11.4192 15.6215 11.0985 C 16.7415 10.5805 17.8274 9.5247 18.3176 8.47754 C 18.6737 7.71662 18.7175 7.47241 18.7175 6.24944 C 18.7175 5.05339 18.6706 4.77828 18.3543 4.12051 C 17.595 2.54153 16.1274 1.42075 14.4126 1.11075 C 13.4808 0.942224 13.2662 0.942361 12.3925 1.11144 Z M 14.3339 1.30208 C 14.3339 1.33834 14.0841 1.69367 13.7789 2.09171 C 12.5599 3.68113 11.5772 6.72605 11.449 9.31043 C 11.3972 10.355 11.3218 10.8442 11.2178 10.8104 C 11.0044 10.7408 10.9493 9.07584 11.1236 7.96591 C 11.5527 5.23744 13.316 1.23725 14.0903 1.23643 C 14.2243 1.23629 14.3339 1.26582 14.3339 1.30208 Z M 15.3715 2.4208 C 14.0331 4.15141 12.9422 7.63531 12.9422 10.179 C 12.9422 11.0938 12.9065 11.2627 12.713 11.2627 C 12.3534 11.2627 12.5346 8.44526 13.009 6.66149 C 13.6161 4.37928 15.1396 1.54038 15.653 1.73473 C 15.797 1.7894 15.7261 1.96232 15.3715 2.4208 Z M 5.03077 15.5706 C 0.219461 20.3257 0 20.5649 0 21.0537 C 0 21.478 0.113975 21.6816 0.670212 22.2512 C 1.27516 22.8706 1.40013 22.9375 1.9533 22.9375 H 2.56618 L 7.95974 17.6207 L 13.3533 12.3038 L 13.0684 12.0046 C 12.9117 11.84 12.591 11.6672 12.3555 11.6208 C 11.9458 11.5399 11.7302 11.7293 7.28995 16.0694 C 4.73922 18.5626 2.58163 20.6026 2.49534 20.6026 C 2.21938 20.6026 3.72722 18.9998 7.61921 15.1562 C 9.705 13.0965 11.4114 11.3778 11.4114 11.337 C 11.4114 11.2961 11.3475 11.2627 11.2695 11.2627 C 11.1914 11.2627 10.8877 11.1133 10.5945 10.9306 L 10.0614 10.5985 L 5.03077 15.5706 Z M 16.0676 11.0649 L 15.5051 11.3891 L 19.9989 15.8454 C 22.4706 18.2963 24.4928 20.3751 24.4928 20.4648 C 24.4928 20.767 23.0539 19.4565 19.0525 15.5103 L 15.0728 11.5855 L 14.0753 11.6645 L 13.0776 11.7435 L 18.7828 17.3717 C 24.4422 22.955 24.4924 23 25.0586 23 C 25.5648 23 25.7073 22.9195 26.3136 22.2922 C 26.887 21.6992 26.9982 21.4993 27 21.0591 C 27.0021 20.5502 26.8461 20.3809 21.9947 15.6236 C 19.2406 12.923 16.9069 10.7195 16.8087 10.7271 C 16.7105 10.7346 16.3769 10.8867 16.0676 11.0649 Z" stroke-linecap="round"/>
</g>
</svg>